<svg width="25" height="25" viewBox="0 0 25 25" fill="none" xmlns="http://www.w3.org/2000/svg">
<path d="M24.301 12.4634C24.301 19.1512 18.8795 24.5728 12.1917 24.5728C5.50381 24.5728 0.0822754 19.1512 0.0822754 12.4634C0.0822754 5.77554 5.50381 0.354004 12.1917 0.354004C18.8795 0.354004 24.301 5.77554 24.301 12.4634ZM10.791 18.8752L19.7753 9.89082C20.0804 9.58574 20.0804 9.09106 19.7753 8.78599L18.6705 7.68115C18.3654 7.37603 17.8708 7.37603 17.5656 7.68115L10.2385 15.0082L6.81768 11.5874C6.5126 11.2823 6.01792 11.2823 5.71279 11.5874L4.60796 12.6922C4.30288 12.9973 4.30288 13.4919 4.60796 13.797L9.68608 18.8751C9.99121 19.1803 10.4858 19.1803 10.791 18.8752Z" fill="#476157"/>
</svg>
